<svg width="313" height="60" viewBox="0 0 313 60" fill="none" xmlns="http://www.w3.org/2000/svg">
<path d="M2.37228 28.997C3.50983 27.5737 5.01433 26.375 6.55552 25.5884C15.1054 21.2434 24.059 27.1242 24.9397 36.451C25.1599 38.8483 24.8663 41.4703 23.7287 43.8301C22.5912 46.1899 20.6097 48.2126 18.3713 48.8119C16.1329 49.4487 13.7844 48.4373 13.0505 46.2648C12.7569 45.3658 12.6102 44.2421 12.6469 43.3057C12.7203 42.2943 12.7936 41.2455 12.1698 40.384C11.913 40.0094 11.546 39.7098 11.1424 39.4851C9.89476 38.7734 8.50034 38.7734 7.3261 39.5225C6.33534 40.1218 5.2345 40.871 3.98687 40.6837C3.14289 40.5713 2.44566 40.0844 1.85854 39.4851C-1.15044 36.2637 -0.159669 32.106 2.37228 28.997Z" fill="white" fill-opacity="0.85"/>
<path d="M18.2982 14.0892C14.5554 13.34 11.1794 17.4603 13.638 20.8315C14.6654 22.2548 16.6102 22.9291 18.2615 22.4796C19.9495 21.9927 21.2338 20.382 21.3806 18.6215C21.5274 16.6737 20.2431 14.5012 18.2982 14.0892Z" fill="white" fill-opacity="0.85"/>
<path d="M27.9484 20.1944C24.2055 19.4453 20.8295 23.5655 23.2881 26.9367C24.3156 28.3601 26.2604 29.0343 27.9117 28.5848C29.5996 28.0979 30.884 26.4872 31.0307 24.7267C31.1775 22.7789 29.8565 20.569 27.9484 20.1944Z" fill="white" fill-opacity="0.85"/>
<path d="M32.058 31.5817C29.1591 30.5704 26.3336 33.5295 27.1409 36.5261C27.728 38.736 30.37 40.122 32.4616 39.3354C36.2412 37.8745 35.544 32.8178 32.058 31.5817Z" fill="white" fill-opacity="0.85"/>
<path d="M6.77552 15.6624C3.87662 14.6511 1.0511 17.6102 1.85838 20.6068C2.4455 22.8167 5.08754 24.2026 7.17915 23.416C10.922 21.9552 10.2615 16.8985 6.77552 15.6624Z" fill="white" fill-opacity="0.85"/>
<path d="M59.264 22.224L58.448 25.92C59.184 25.28 60 24.768 60.896 24.384C61.824 23.968 62.816 23.76 63.872 23.76C64.704 23.76 65.472 23.904 66.176 24.192C66.88 24.48 67.488 24.944 68 25.584C68.512 26.224 68.912 27.056 69.2 28.08C69.488 29.072 69.632 30.304 69.632 31.776C69.632 32.8 69.552 33.92 69.392 35.136C69.232 36.352 68.976 37.584 68.624 38.832C68.272 40.048 67.792 41.232 67.184 42.384C66.608 43.504 65.888 44.512 65.024 45.408C64.16 46.272 63.152 46.976 62 47.52C60.848 48.032 59.536 48.288 58.064 48.288C57.2 48.288 56.448 48.08 55.808 47.664C55.2 47.216 54.672 46.64 54.224 45.936L51.488 58.8L46.4 60L54.416 22.224H59.264ZM61.568 26.88C60.832 26.88 60.144 27.088 59.504 27.504C58.896 27.92 58.32 28.496 57.776 29.232L54.704 43.536C55.056 44.144 55.472 44.576 55.952 44.832C56.464 45.088 56.912 45.216 57.296 45.216C58.736 45.216 59.936 44.736 60.896 43.776C61.856 42.784 62.624 41.6 63.2 40.224C63.808 38.816 64.24 37.36 64.496 35.856C64.752 34.32 64.88 32.992 64.88 31.872C64.88 30.912 64.784 30.112 64.592 29.472C64.4 28.832 64.144 28.32 63.824 27.936C63.504 27.552 63.152 27.28 62.768 27.12C62.384 26.96 61.984 26.88 61.568 26.88ZM87.9609 28.704C87.9609 31.424 86.8889 33.632 84.7449 35.328C82.6329 36.992 79.7049 38.016 75.9609 38.4C75.9289 38.656 75.9129 38.912 75.9129 39.168C75.9129 39.392 75.9129 39.632 75.9129 39.888C75.9129 41.52 76.2169 42.72 76.8249 43.488C77.4649 44.256 78.5529 44.64 80.0889 44.64C81.6249 44.64 83.1449 44.24 84.6489 43.44C86.1529 42.64 87.5289 41.296 88.7769 39.408H90.3129C89.6729 40.592 88.9049 41.728 88.0089 42.816C87.1129 43.872 86.1209 44.816 85.0329 45.648C83.9449 46.448 82.7769 47.088 81.5289 47.568C80.3129 48.048 79.0649 48.288 77.7849 48.288C76.8569 48.288 75.9609 48.144 75.0969 47.856C74.2649 47.568 73.5129 47.12 72.8409 46.512C72.2009 45.904 71.6729 45.12 71.2569 44.16C70.8729 43.168 70.6809 41.984 70.6809 40.608C70.6809 39.712 70.7769 38.672 70.9689 37.488C71.1609 36.304 71.4489 35.088 71.8329 33.84C72.2489 32.592 72.7769 31.36 73.4169 30.144C74.0889 28.928 74.8729 27.856 75.7689 26.928C76.6649 25.968 77.6889 25.2 78.8409 24.624C80.0249 24.048 81.3529 23.76 82.8249 23.76C83.4969 23.76 84.1369 23.84 84.7449 24C85.3529 24.128 85.8969 24.384 86.3769 24.768C86.8569 25.12 87.2409 25.616 87.5289 26.256C87.8169 26.896 87.9609 27.712 87.9609 28.704ZM83.2569 26.112C82.3609 26.112 81.5289 26.432 80.7609 27.072C79.9929 27.68 79.3049 28.48 78.6969 29.472C78.1209 30.464 77.6089 31.584 77.1609 32.832C76.7449 34.048 76.4249 35.28 76.2009 36.528C78.8889 36.112 81.0329 35.168 82.6329 33.696C84.2329 32.224 85.0329 30.4 85.0329 28.224C85.0329 27.68 84.9209 27.2 84.6969 26.784C84.5049 26.336 84.0249 26.112 83.2569 26.112ZM90.4168 24H92.0008L93.4408 17.376L98.4328 16.704L96.8488 24H100.545L100.209 25.68H96.4648L93.3448 40.32C93.2808 40.576 93.2008 40.896 93.1048 41.28C93.0408 41.664 93.0088 42.032 93.0088 42.384C93.0088 42.96 93.1208 43.488 93.3448 43.968C93.6008 44.416 94.0968 44.64 94.8328 44.64C95.6968 44.64 96.5928 44.176 97.5208 43.248C98.4488 42.32 99.3128 41.04 100.113 39.408H101.889C101.057 41.168 100.225 42.624 99.3928 43.776C98.5608 44.928 97.7608 45.84 96.9928 46.512C96.2248 47.184 95.4728 47.648 94.7368 47.904C94.0328 48.16 93.3928 48.288 92.8168 48.288C91.9208 48.288 91.1848 48.144 90.6088 47.856C90.0328 47.536 89.5688 47.136 89.2168 46.656C88.8968 46.144 88.6568 45.568 88.4968 44.928C88.3688 44.256 88.3048 43.584 88.3048 42.912C88.3048 42.304 88.3528 41.696 88.4488 41.088C88.5448 40.448 88.6408 39.888 88.7368 39.408L91.6648 25.68H90.0808L90.4168 24ZM118.561 39.408C117.473 40.592 116.385 41.584 115.297 42.384C114.241 43.184 113.217 43.888 112.225 44.496C111.841 45.2 111.377 45.792 110.833 46.272C110.321 46.752 109.761 47.152 109.153 47.472C108.577 47.76 107.969 47.968 107.329 48.096C106.721 48.224 106.145 48.288 105.601 48.288C104.385 48.288 103.329 48.112 102.433 47.76C101.569 47.376 100.849 46.896 100.273 46.32C99.6965 45.744 99.2805 45.088 99.0245 44.352C98.7365 43.616 98.5925 42.88 98.5925 42.144C98.5925 41.024 98.8485 40.08 99.3605 39.312C99.9045 38.544 100.497 38 101.137 37.68C102.481 35.28 103.617 32.912 104.545 30.576C105.473 28.208 106.305 25.84 107.041 23.472L112.081 22.512C112.241 25.584 112.385 28.08 112.513 30C112.673 31.92 112.801 33.488 112.897 34.704C113.025 35.92 113.121 36.912 113.185 37.68C113.249 38.416 113.281 39.184 113.281 39.984C113.281 40.272 113.265 40.56 113.233 40.848C113.233 41.104 113.217 41.36 113.185 41.616C113.793 41.264 114.385 40.896 114.961 40.512C115.537 40.128 116.065 39.76 116.545 39.408H118.561ZM108.241 40.032C108.241 39.36 108.209 38.736 108.145 38.16C108.113 37.584 108.049 36.864 107.953 36C107.857 35.136 107.745 34.048 107.617 32.736C107.489 31.424 107.361 29.728 107.233 27.648C106.785 29.44 106.241 31.152 105.601 32.784C104.993 34.416 104.257 36.096 103.393 37.824C103.585 37.984 103.745 38.192 103.873 38.448C104.001 38.704 104.065 39.024 104.065 39.408C104.065 40.176 103.841 40.768 103.393 41.184C102.977 41.6 102.545 41.808 102.097 41.808C101.585 41.808 101.201 41.584 100.945 41.136C100.945 42.256 101.201 43.136 101.713 43.776C102.225 44.384 103.009 44.688 104.065 44.688C105.281 44.688 106.273 44.336 107.041 43.632C107.841 42.928 108.241 41.728 108.241 40.032ZM118.167 24H119.751L121.191 17.376L126.183 16.704L124.599 24H128.295L127.959 25.68H124.215L121.095 40.32C121.031 40.576 120.951 40.896 120.855 41.28C120.791 41.664 120.759 42.032 120.759 42.384C120.759 42.96 120.871 43.488 121.095 43.968C121.351 44.416 121.847 44.64 122.583 44.64C123.447 44.64 124.343 44.176 125.271 43.248C126.199 42.32 127.063 41.04 127.863 39.408H129.639C128.807 41.168 127.975 42.624 127.143 43.776C126.311 44.928 125.511 45.84 124.743 46.512C123.975 47.184 123.223 47.648 122.487 47.904C121.783 48.16 121.143 48.288 120.567 48.288C119.671 48.288 118.935 48.144 118.359 47.856C117.783 47.536 117.319 47.136 116.967 46.656C116.647 46.144 116.407 45.568 116.247 44.928C116.119 44.256 116.055 43.584 116.055 42.912C116.055 42.304 116.103 41.696 116.199 41.088C116.295 40.448 116.391 39.888 116.487 39.408L119.415 25.68H117.831L118.167 24ZM148.855 24L145.351 40.32C145.191 40.96 145.111 41.68 145.111 42.48C145.111 43.024 145.207 43.52 145.399 43.968C145.591 44.416 145.991 44.64 146.599 44.64C147.367 44.64 148.135 44.176 148.903 43.248C149.703 42.32 150.455 41.04 151.159 39.408H152.935C152.167 41.424 151.399 43.024 150.631 44.208C149.863 45.36 149.111 46.24 148.375 46.848C147.671 47.456 146.983 47.84 146.311 48C145.671 48.192 145.095 48.288 144.583 48.288C143.527 48.288 142.647 47.92 141.943 47.184C141.271 46.448 140.871 45.248 140.743 43.584C140.007 44.896 138.983 46.016 137.671 46.944C136.391 47.84 134.983 48.288 133.447 48.288C132.679 48.288 131.927 48.16 131.191 47.904C130.455 47.616 129.799 47.168 129.223 46.56C128.647 45.92 128.183 45.12 127.831 44.16C127.479 43.168 127.303 41.968 127.303 40.56C127.303 39.472 127.415 38.304 127.639 37.056C127.895 35.808 128.247 34.56 128.695 33.312C129.143 32.064 129.719 30.864 130.423 29.712C131.127 28.56 131.927 27.552 132.823 26.688C133.719 25.792 134.727 25.088 135.847 24.576C136.999 24.032 138.247 23.76 139.591 23.76C140.359 23.76 141.143 23.936 141.943 24.288C142.743 24.64 143.271 25.312 143.527 26.304L144.007 24H148.855ZM135.463 44.64C135.975 44.64 136.503 44.512 137.047 44.256C137.591 43.968 138.103 43.6 138.583 43.152C139.095 42.672 139.543 42.112 139.927 41.472C140.311 40.832 140.583 40.144 140.743 39.408L143.047 28.512C142.951 27.968 142.711 27.488 142.327 27.072C141.943 26.624 141.383 26.4 140.647 26.4C139.335 26.4 138.167 26.88 137.143 27.84C136.119 28.8 135.255 29.968 134.551 31.344C133.847 32.72 133.319 34.192 132.967 35.76C132.615 37.328 132.439 38.704 132.439 39.888C132.439 41.712 132.711 42.96 133.255 43.632C133.799 44.304 134.535 44.64 135.463 44.64ZM172.103 24L167.207 47.04C168.071 46.752 168.855 46.432 169.559 46.08C170.295 45.696 170.951 45.216 171.527 44.64C172.103 44.032 172.631 43.312 173.111 42.48C173.591 41.648 174.039 40.624 174.455 39.408H176.231C175.655 41.104 175.047 42.496 174.407 43.584C173.799 44.64 173.111 45.52 172.343 46.224C171.575 46.896 170.727 47.424 169.799 47.808C168.903 48.192 167.911 48.512 166.823 48.768L166.199 51.84C165.847 53.568 165.447 54.96 164.999 56.016C164.583 57.072 164.103 57.888 163.559 58.464C163.047 59.072 162.471 59.472 161.831 59.664C161.191 59.888 160.471 60 159.671 60C158.199 60 156.951 59.664 155.927 58.992C154.903 58.352 154.391 57.248 154.391 55.68C154.391 54.88 154.615 54.128 155.063 53.424C155.543 52.752 156.151 52.112 156.887 51.504C157.623 50.896 158.439 50.352 159.335 49.872C160.263 49.392 161.175 48.976 162.071 48.624L162.983 44.208C162.151 45.104 161.191 45.84 160.103 46.416C159.047 46.96 157.927 47.232 156.743 47.232C155.975 47.232 155.223 47.104 154.487 46.848C153.751 46.56 153.095 46.112 152.519 45.504C151.943 44.864 151.479 44.064 151.127 43.104C150.775 42.112 150.599 40.912 150.599 39.504C150.599 38 150.855 36.336 151.367 34.512C151.911 32.688 152.695 30.976 153.719 29.376C154.743 27.776 156.023 26.448 157.559 25.392C159.095 24.304 160.871 23.76 162.887 23.76C163.655 23.76 164.439 23.936 165.239 24.288C166.039 24.64 166.567 25.312 166.823 26.304L167.303 24H172.103ZM158.759 43.584C159.207 43.584 159.703 43.472 160.247 43.248C160.791 42.992 161.303 42.672 161.783 42.288C162.295 41.872 162.759 41.392 163.175 40.848C163.591 40.272 163.895 39.648 164.087 38.976L166.343 28.464C166.247 27.952 166.007 27.488 165.623 27.072C165.239 26.624 164.679 26.4 163.943 26.4C162.631 26.4 161.463 26.848 160.439 27.744C159.415 28.608 158.551 29.68 157.847 30.96C157.143 32.208 156.615 33.552 156.263 34.992C155.911 36.432 155.735 37.712 155.735 38.832C155.735 40.656 156.007 41.904 156.551 42.576C157.095 43.248 157.831 43.584 158.759 43.584ZM158.039 57.504C158.935 57.504 159.623 56.992 160.103 55.968C160.583 54.944 160.999 53.6 161.351 51.936L161.687 50.4C159.895 51.168 158.535 52.016 157.607 52.944C156.711 53.872 156.263 54.768 156.263 55.632C156.263 56.176 156.407 56.624 156.695 56.976C157.015 57.328 157.463 57.504 158.039 57.504ZM182.536 24L181.672 27.936C182.12 27.424 182.584 26.928 183.064 26.448C183.544 25.936 184.04 25.488 184.552 25.104C185.096 24.688 185.656 24.368 186.232 24.144C186.808 23.888 187.432 23.76 188.104 23.76C189.064 23.76 189.752 23.984 190.168 24.432C190.584 24.848 190.792 25.376 190.792 26.016C190.792 26.624 190.68 27.136 190.456 27.552C190.264 27.936 190.024 28.256 189.736 28.512C189.448 28.736 189.144 28.896 188.824 28.992C188.504 29.088 188.232 29.136 188.008 29.136C187.72 29.136 187.496 29.072 187.336 28.944C187.208 28.816 187.064 28.688 186.904 28.56C186.776 28.4 186.616 28.256 186.424 28.128C186.232 28 185.96 27.936 185.608 27.936C184.904 27.936 184.152 28.192 183.352 28.704C182.584 29.184 181.864 29.712 181.192 30.288L177.4 48H172.6L177.688 24H182.536ZM211.573 24L208.069 40.32C207.909 40.96 207.829 41.68 207.829 42.48C207.829 43.024 207.925 43.52 208.117 43.968C208.309 44.416 208.709 44.64 209.317 44.64C210.085 44.64 210.853 44.176 211.621 43.248C212.421 42.32 213.173 41.04 213.877 39.408H215.653C214.885 41.424 214.117 43.024 213.349 44.208C212.581 45.36 211.829 46.24 211.093 46.848C210.389 47.456 209.701 47.84 209.029 48C208.389 48.192 207.813 48.288 207.301 48.288C206.245 48.288 205.365 47.92 204.661 47.184C203.989 46.448 203.589 45.248 203.461 43.584C202.725 44.896 201.701 46.016 200.389 46.944C199.109 47.84 197.701 48.288 196.165 48.288C195.397 48.288 194.645 48.16 193.909 47.904C193.173 47.616 192.517 47.168 191.941 46.56C191.365 45.92 190.901 45.12 190.549 44.16C190.197 43.168 190.021 41.968 190.021 40.56C190.021 39.472 190.133 38.304 190.357 37.056C190.613 35.808 190.965 34.56 191.413 33.312C191.861 32.064 192.437 30.864 193.141 29.712C193.845 28.56 194.645 27.552 195.541 26.688C196.437 25.792 197.445 25.088 198.565 24.576C199.717 24.032 200.965 23.76 202.309 23.76C203.077 23.76 203.861 23.936 204.661 24.288C205.461 24.64 205.989 25.312 206.245 26.304L206.725 24H211.573ZM198.181 44.64C198.693 44.64 199.221 44.512 199.765 44.256C200.309 43.968 200.821 43.6 201.301 43.152C201.813 42.672 202.261 42.112 202.645 41.472C203.029 40.832 203.301 40.144 203.461 39.408L205.765 28.512C205.669 27.968 205.429 27.488 205.045 27.072C204.661 26.624 204.101 26.4 203.365 26.4C202.053 26.4 200.885 26.88 199.861 27.84C198.837 28.8 197.973 29.968 197.269 31.344C196.565 32.72 196.037 34.192 195.685 35.76C195.333 37.328 195.157 38.704 195.157 39.888C195.157 41.712 195.429 42.96 195.973 43.632C196.517 44.304 197.253 44.64 198.181 44.64ZM241.206 42.096C241.206 43.792 241.782 44.64 242.934 44.64C243.382 44.64 243.878 44.528 244.422 44.304C244.358 45.168 244.166 45.872 243.846 46.416C243.526 46.928 243.142 47.328 242.694 47.616C242.278 47.872 241.846 48.048 241.398 48.144C240.95 48.24 240.566 48.288 240.246 48.288C239.03 48.288 238.038 47.84 237.27 46.944C236.502 46.016 236.118 44.672 236.118 42.912C236.118 41.888 236.23 40.8 236.454 39.648C236.71 38.496 236.982 37.36 237.27 36.24C237.558 35.088 237.814 33.984 238.038 32.928C238.294 31.872 238.422 30.912 238.422 30.048C238.422 29.248 238.278 28.608 237.99 28.128C237.702 27.648 237.142 27.408 236.31 27.408C235.286 27.408 234.406 27.824 233.67 28.656C232.966 29.488 232.23 30.784 231.462 32.544L228.15 48H223.302L226.71 31.968C226.806 31.52 226.87 31.12 226.902 30.768C226.934 30.416 226.95 30.096 226.95 29.808C226.95 28.912 226.774 28.288 226.422 27.936C226.07 27.584 225.59 27.408 224.982 27.408C223.958 27.408 223.078 27.84 222.342 28.704C221.638 29.536 220.902 30.816 220.134 32.544L216.822 48H212.022L217.11 24H221.958L221.286 27.072C222.406 25.632 223.478 24.72 224.502 24.336C225.526 23.952 226.438 23.76 227.238 23.76C228.87 23.76 230.038 24.16 230.742 24.96C231.478 25.728 231.926 26.672 232.086 27.792C232.694 26.896 233.286 26.192 233.862 25.68C234.438 25.136 234.998 24.72 235.542 24.432C236.118 24.144 236.646 23.968 237.126 23.904C237.638 23.808 238.118 23.76 238.566 23.76C239.526 23.76 240.326 23.904 240.966 24.192C241.606 24.48 242.118 24.88 242.502 25.392C242.886 25.872 243.142 26.448 243.27 27.12C243.43 27.76 243.51 28.432 243.51 29.136C243.51 30.192 243.382 31.312 243.126 32.496C242.902 33.648 242.646 34.784 242.358 35.904C242.07 37.024 241.798 38.128 241.542 39.216C241.318 40.272 241.206 41.232 241.206 42.096Z" fill="#FAFAFA"/>
</svg>
